#!OML:ASF F:\VICON\USERDATA\INSTALL\rory3\rory3.ASF
:FULLY-SPECIFIED
:DEGREES
73
root 0.9887598326133363 18.674570180073175 34.75705080683295 5.623634363751274 -6.507380192401234 -2.5259852454343124
lfemur 20.26413470400102 -6.306948767950999 -27.162310947709145
ltibia -1.5900789099614272
lfoot 27.839275105690845 -12.668047289345477
ltoes -12.79611757886217
rfemur -41.36549997497059 1.794825861277991 25.394984931201844
rtibia 81.96305010495033
rfoot 6.920820993400921 -2.2867822262525146
rtoes 2.7852913249745503
lowerback nan -0.6283939528170043 -0.8822080382716151
upperback -0.8548174032400352 0.4054535960252319 0.5716848244109836
thorax -7.949051582367033 -0.3778771267842497 2.6998998344841025
lowerneck -19.83718425861488 -2.750696362372864 -2.528264992603509
upperneck 8.517890004082775 -4.719186710566519 6.081163779631304
head 6.458621021172041 -1.1213952085985417 1.5740704975991915
lclavicle -3.5280576929929063e-15 -1.8642082272284947e-14
lhumerus -45.529323017548975 -2.3739759408261145 80.94908328310692
lradius 129.96826253447853
lwrist 37.08283810984568
lhand -28.642234804740802 4.542549355028607
lfingers nan
lthumb -1.7318912790188465 34.27114792098069
rclavicle -3.745536372917484e-15 -1.6329085754212764e-14
rhumerus -66.7255866642848 -0.2130431996115476 -88.63285788494436
rradius 98.05897551148153
rwrist -22.403400265559096
rhand -19.911867931404814 nan
rfingers nan
rthumb 5.941128258962777 10.118313275699219
74
root 1.004326138330149 18.67855173408605 34.69686105076528 5.549564486185387 -6.155199141030015 -2.243703572223034
lfemur 20.0067906788389 -6.667213901921841 -27.442671923008913
ltibia -0.5600045734184036
lfoot 30.50909331517068 -12.080520854435832
ltoes -4.334251284194343
rfemur -40.48900441564027 1.484263162309312 25.37829061603592
rtibia 77.08094413757543
rfoot 6.864229887447465 -2.454492794424884
rtoes 3.208456548431766
lowerback nan -0.7278012047133252 -0.9499238286263947
upperback -0.8240687382264267 0.35569425345525185 0.4675044201372177
thorax -7.806244513977708 -0.43535918695372067 2.7392505416364425
lowerneck -19.785883479064218 -2.7466766953307564 -2.533518425245672
upperneck 8.506754064606396 -4.704254666122391 6.037832773137048
head 6.457283537603083 -1.114179197736712 1.5596822535294843
lclavicle -4.470931537041372e-15 1.0285543888956853e-14
lhumerus -45.776825047013915 -2.334843606622755 81.08109136590392
lradius 129.88334239032673
lwrist 37.15425532529045
lhand -27.657943115457865 5.795661718095151
lfingers nan
lthumb -0.8042687324807878 35.43865032271616
rclavicle -4.358562702883093e-15 1.2719091469617124e-14
rhumerus -66.43563866096127 -0.3756491201291876 -88.69429025604951
rradius 98.32274251898696
rwrist -21.72350379558095
rhand -20.115008067253623 nan
rfingers nan
rthumb 5.735703308922693 10.887324192219832
75
root 1.021056617809561 18.6755252833406 35.0716052493067 5.334944947907802 -5.4999062354351285 -1.8145869612443981
lfemur 19.960430872713378 -6.931428660558005 -27.763403581079544
ltibia 0.9547130246624675
lfoot 29.720255377515326 -15.827484349725115
ltoes -7.858390802477297
rfemur -39.53299337624183 0.8281679633698857 25.283893993422314
rtibia 72.71649616106711
rfoot 5.643105962925851 -3.0916327117230105
rtoes 4.098647488625342
lowerback nan -0.887272647411765 -1.0912113826040066
upperback -0.7447668680308878 0.21377849441127594 0.32286130173356664
thorax -7.707423168418822 -0.5392879304852435 2.8071661839205024
lowerneck -19.853020523346526 -2.7398137648004743 -2.501700861949431
upperneck 8.694767263308327 -4.699983540577219 5.873917743483283
head 6.5317141709329904 -1.12252533713771 1.513859823411604
lclavicle -3.630153741160951e-15 4.1003431089067967e-16
lhumerus -46.08293328013466 -2.2923531667662003 81.18825557993327
lradius 129.86414593826555
lwrist 37.07320288468737
lhand -27.468561387999827 6.699917992795259
lfingers nan
lthumb -0.6163743540157005 36.29052711129395
rclavicle -3.4472325781866393e-15 3.036404468708317e-15
rhumerus -66.19774663476159 -0.571515769647851 -88.85669083292484
rradius 98.69619078520576
rwrist -20.87769246023745
rhand -20.15619361388599 nan
rfingers nan
rthumb 5.688777363963703 11.219682382505946
76
root 1.0413824987296034 18.676249453797922 35.81092591387531 5.115770875920361 -5.3966606195671165 -1.48861534412609
lfemur 19.663461625468695 -7.059555796315724 -28.158883417188807
ltibia 3.0870508328748087
lfoot 27.4445331888843 -19.76041241817787
ltoes -15.09629446435623
rfemur -38.57560857510818 0.17441964311361335 25.480284058616338
rtibia 68.87704046328848
rfoot 6.5863587565225306 -2.6030029576637026
rtoes 1.445207744387519
lowerback nan -0.928686049861584 -1.243150023283032
upperback -0.5305671173451647 0.21518230778173297 0.1708134026304
thorax -7.198258683699531 -0.5712046352252481 2.845132865391272
lowerneck -19.859663618974576 -2.7259264513131263 -2.4395859444200814
upperneck 8.423283570250918 -4.739410732296525 5.741509820388271
head 6.462935373306877 -1.1344302201181267 1.4703739099055286
lclavicle 1.6559575266836857e-14 -2.0576324116626473e-14
lhumerus -46.34731338611889 -2.2285637648449628 81.29870151190184
lradius 129.72110661126447
lwrist 36.733188684501954
lhand -27.52536888089115 7.340037524707259
lfingers nan
lthumb -0.6704057037720081 36.8981817733494
rclavicle 1.6391416734100555e-14 -1.7538611391564333e-14
rhumerus -65.88364730416045 -0.7550208277584218 -89.07701880650527
rradius 99.22276293032363
rwrist -19.968579520143503
rhand -20.17141952474355 nan
rfingers nan
rthumb 5.666277044136064 11.430710511732803
77
root 1.0597609286205594 18.669651074643017 36.63318421546923 4.998258641114109 -5.449763578719725 -1.2277954101107857
lfemur 18.861944271058046 -7.223447694378523 -28.43392649761221
ltibia 5.744832816486472
lfoot 28.03892517446766 -17.92828740629995
ltoes -10.504417464254303
rfemur -37.814655189684544 -0.21647768506437126 25.79199497475474
rtibia 65.67667483784874
rfoot 7.972256343689768 -2.34964321822081
rtoes -0.18684250572161076
lowerback nan -0.8869523270800722 -1.3479701673629547
upperback -0.3922679786110893 0.33951494417850236 0.0019687626418471993
thorax -6.9120284585046985 -0.5448269787548347 2.831797068403562
lowerneck -19.81209997164444 -2.7699472307733903 -2.373711602399286
upperneck 8.092564161980734 -4.821758624128247 5.686603625390004
head 6.37546569846972 -1.1844224848255345 1.433079397203279
lclavicle 1.7957935024285382e-14 2.687046904018863e-14
lhumerus -46.59904249711548 -2.2635620120087037 81.51817248830508
lradius 129.4191651137075
lwrist 36.36661176034952
lhand -27.549787119915134 7.410437075215736
lfingers nan
lthumb -0.7107980439185753 36.93988643310402
rclavicle 1.8223877293827324e-14 2.966807686069133e-14
rhumerus -65.50492452508867 -0.9944945128839997 -89.169860122325
rradius 99.72857792646667
rwrist -19.249424622115008
rhand -20.244157772602506 nan
rfingers nan
rthumb 5.587963675230792 11.532959903833797
